# xmcd CD database file
#
# Track frame offsets:
#	150
#	24889
#	48670
#	75016
#	99209
#	121860
#	140826
#	165695
#	190965
#	217289
#	244097
#
# Disc length: 3592 seconds
#
# Revision: 3
# Processed by: cddbd v1.5.2PL0 Copyright (c) Steve Scherf et al.
# Submitted via: CDex 1.70beta3
#
DISCID=8e0e060b
DTITLE=平井堅 - 歌バカ disk-1
DYEAR=2005
DGENRE=Blues
TTITLE0=Precious Junkk
TTITLE1=片方ずつのイヤフォン
TTITLE2=横顔
TTITLE3=ドシャブリ
TTITLE4=Stay With Me
TTITLE5=HEAT UP
TTITLE6=LOVE LOVE LOVE
TTITLE7=楽園
TTITLE8=why
TTITLE9=LOVE OR LUST
TTITLE10=even if
EXTD=YEAR: 2005
EXTT0=
EXTT1=
EXTT2=
EXTT3=
EXTT4=
EXTT5=
EXTT6=
EXTT7=
EXTT8=
EXTT9=
EXTT10=
PLAYORDER=
